HIERARCHY
ROOT root
{
	OFFSET	0	13.1	24.9
	CHANNELS 6  Xposition Yposition Zposition Xrotation Yrotation Zrotation
	JOINT spine_1
	{
		OFFSET	0	9.99999	0
		CHANNELS 3  Xrotation Yrotation Zrotation
		JOINT spine_2
		{
			OFFSET	0	112	-10
			CHANNELS 3  Xrotation Yrotation Zrotation
			JOINT spine_3
			{
				OFFSET	0	206.5	19.3
				CHANNELS 3  Xrotation Yrotation Zrotation
				JOINT spine_4
				{
					OFFSET	0	110.4	14.6
					CHANNELS 3  Xrotation Yrotation Zrotation
					JOINT neck_1
					{
						OFFSET	0	71.8	-50.3
						CHANNELS 3  Xrotation Yrotation Zrotation
						JOINT neck_2
						{
							OFFSET	0	86.2	-25.8
							CHANNELS 3  Xrotation Yrotation Zrotation
							JOINT head_ee
							{
								OFFSET	0	179.8	-8.7
								CHANNELS 3  Xrotation Yrotation Zrotation
								End Site
								{
									OFFSET	1	0	0
								}
							}
						}
					}
					JOINT left_clavicle
					{
						OFFSET	-43.2	22.4	-70.8
						CHANNELS 3  Xrotation Yrotation Zrotation
						JOINT left_shoulder
						{
							OFFSET	-93.9	-5.79999	48.7
							CHANNELS 3  Xrotation Yrotation Zrotation
							JOINT left_elbow
							{
								OFFSET	-291.4	-30.8	15.2
								CHANNELS 3  Xrotation Yrotation Zrotation
								JOINT left_lowarm_twist
								{
									OFFSET	-110.7	-3.89999	13.6
									CHANNELS 3  Xrotation Yrotation Zrotation
									JOINT left_hand
									{
										OFFSET	-110.7	-3.89999	13.6
										CHANNELS 3  Xrotation Yrotation Zrotation
										JOINT left_ee
										{
											OFFSET	-80.8	-5.10001	12.1
											CHANNELS 3  Xrotation Yrotation Zrotation
											End Site
											{
												OFFSET	1	0	0
											}
										}
									}
								}
							}
						}
					}
					JOINT right_clavicle
					{
						OFFSET	43.2	22.4	-70.8
						CHANNELS 3  Xrotation Yrotation Zrotation
						JOINT right_shoulder
						{
							OFFSET	93.9	-5.79999	48.7
							CHANNELS 3  Xrotation Yrotation Zrotation
							JOINT right_elbow
							{
								OFFSET	291.4	-30.8	15.2
								CHANNELS 3  Xrotation Yrotation Zrotation
								JOINT right_lowarm_twist
								{
									OFFSET	110.7	-3.89999	13.6
									CHANNELS 3  Xrotation Yrotation Zrotation
									JOINT right_hand
									{
										OFFSET	110.7	-3.89999	13.6
										CHANNELS 3  Xrotation Yrotation Zrotation
										JOINT right_ee
										{
											OFFSET	80.8	-5.10001	12.1
											CHANNELS 3  Xrotation Yrotation Zrotation
											End Site
											{
												OFFSET	1	0	0
											}
										}
									}
								}
							}
						}
					}
				}
			}
		}
	}
	JOINT left_hip
	{
		OFFSET	-82.8	-127.5	0.300001
		CHANNELS 3  Xrotation Yrotation Zrotation
		JOINT left_knee
		{
			OFFSET	-28.2	-396.7	2.2
			CHANNELS 3  Xrotation Yrotation Zrotation
			JOINT left_ankle
			{
				OFFSET	-11.7	-411.3	35.4
				CHANNELS 3  Xrotation Yrotation Zrotation
				JOINT left_toes
				{
					OFFSET	0	-60	-88.6
					CHANNELS 3  Xrotation Yrotation Zrotation
					JOINT left_foot_ee
					{
						OFFSET	-22.5	-16.5	-42.2
						CHANNELS 3  Xrotation Yrotation Zrotation
						End Site
						{
							OFFSET	1	0	0
						}
					}
				}
			}
		}
	}
	JOINT right_hip
	{
		OFFSET	82.8	-127.5	0.300001
		CHANNELS 3  Xrotation Yrotation Zrotation
		JOINT right_knee
		{
			OFFSET	28.2	-396.7	2.2
			CHANNELS 3  Xrotation Yrotation Zrotation
			JOINT right_ankle
			{
				OFFSET	11.7	-411.3	35.4
				CHANNELS 3  Xrotation Yrotation Zrotation
				JOINT right_toes
				{
					OFFSET	0	-60	-88.6
					CHANNELS 3  Xrotation Yrotation Zrotation
					JOINT right_foot_ee
					{
						OFFSET	22.5	-16.5	-42.2
						CHANNELS 3  Xrotation Yrotation Zrotation
						End Site
						{
							OFFSET	1	0	0
						}
					}
				}
			}
		}
	}
}
MOTION
Frames: 6
Frame Time: 0.02
2263.89 670.321 -896.613 -178.911 -54.9158 -177.6 -0.219007 0.0553673 -0.118265 -0.219001 0.0627806 -0.114503 -0.219128 0.0858212 -0.0984224 -0.219135 0.0692001 -0.110741 6.45918 7.48992 0.787117 6.63801 11.9926 1.16681 -0.0 0.0 -0.0 7.11977 17.5945 13.1348 -37.197 -25.5542 64.9936 0.303651 -8.55447 0.0227103 57.9563 -1.5954 -6.91623 1.06131 -15.0764 0.713231 -0.0 0.0 -0.0 9.58172 27.29 -17.7888 -4.03253 52.0729 -45.5838 0.356019 10.0021 -0.0311542 -49.0904 3.96558 -4.63449 0.0252345 25.1173 10.4842 0.0 0.0 0.0 25.5549 -7.01888 -2.13222 0.24735 -0.0102643 -0.0365701 -1.57844 29.0447 0.247619 19.3277 -0.0 -0.0 -0.0 0.0 -0.0 -4.83913 -3.87611 1.30331 -17.5033 -0.317004 -2.6569 -23.4225 -30.1854 -3.78756 -11.6192 0.0 0.0 0.0 0.0 0.0 
2293.06 681.907 -895.69 -178.995 -52.5077 -177.99 -0.523076 0.0465075 -0.0653076 -0.523075 0.0505689 -0.0622159 -0.523131 0.0629714 -0.0496249 -0.523131 0.0543438 -0.0589473 7.19843 7.10904 -0.518708 7.42178 12.429 -0.42568 -0.0 0.0 -0.0 7.55366 15.9997 13.9668 -34.9804 -23.1693 67.8059 0.346678 -9.74478 0.0295526 59.7111 -1.74827 -7.08121 1.23833 -18.788 0.256745 -0.0 0.0 -0.0 10.111 27.4952 -18.9459 -7.60114 51.6558 -46.7647 0.243098 6.86686 -0.014585 -49.8623 4.05566 -4.67568 0.691914 25.8884 6.46143 0.0 0.0 0.0 25.6 -6.0308 -2.0262 -3.16644 0.117361 0.471715 -2.82978 29.4842 0.446289 20.3951 -0.0 -0.0 -0.0 0.0 -0.0 -3.89023 -0.735939 1.50665 -20.8501 -0.284565 -3.16933 -23.7958 -30.3276 -3.85187 -10.4537 0.0 0.0 0.0 0.0 0.0 
2307.59 678.288 -893.389 179.928 -50.0311 -178.848 -0.879472 0.0334896 0.253824 -0.879436 0.0172703 0.255441 -0.879333 -0.0406873 0.25277 -0.879422 -0.00025641 0.256024 6.05827 6.86576 -0.498718 6.25485 12.1127 -0.325072 -0.0 0.0 -0.0 7.86271 13.6503 14.676 -31.4445 -20.0633 66.7349 0.379451 -10.6458 0.0353538 61.9738 -1.95277 -7.28697 1.40741 -21.8727 -0.0115181 -0.0 0.0 -0.0 9.04701 27.9518 -16.5262 -7.14028 52.1244 -48.0098 0.266777 7.52838 -0.0175518 -49.8097 4.04951 -4.67291 1.34645 27.0761 2.77141 0.0 0.0 0.0 25.8079 -4.35958 -2.29598 -8.06234 0.247034 1.21165 -1.86314 29.9279 0.294181 21.8644 -0.0 -0.0 -0.0 0.0 -0.0 -2.15415 3.70183 2.28967 -25.6374 -0.186293 -3.89718 -24.8924 -30.2609 -4.02773 -8.97315 0.0 0.0 0.0 0.0 0.0 
2326.61 682.371 -890.386 177.436 -47.2651 178.961 -1.40872 0.278077 0.73591 -1.40845 0.230687 0.752112 -1.40508 0.0482289 0.785214 -1.4059 0.17163 0.767744 4.84569 6.91122 0.634419 4.98899 11.3188 1.06647 -0.0 0.0 -0.0 8.17242 12.9257 15.2713 -28.6005 -16.6613 67.9928 0.426771 -11.9373 0.0446198 63.2679 -2.07334 -7.40098 1.68094 -26.7141 -0.460696 -0.0 0.0 -0.0 8.43885 27.744 -15.2051 -6.57887 52.7092 -50.0671 0.315212 8.87507 -0.024462 -49.4401 4.00632 -4.6533 2.14652 28.78 -1.52091 0.0 0.0 0.0 26.7261 -1.95411 -2.63991 -15.0337 0.321725 2.27805 -1.26339 29.9631 0.199295 23.8038 -0.0 -0.0 -0.0 0.0 -0.0 -1.56013 9.06139 1.94633 -33.5153 0.106554 -5.06977 -24.0648 -29.581 -3.87574 -6.83579 0.0 0.0 0.0 0.0 0.0 
2349.21 693.236 -885.688 175.181 -46.1214 177.894 -1.87292 0.539761 0.533176 -1.87291 0.504741 0.566441 -1.86767 0.352737 0.671709 -1.86801 0.454392 0.607574 3.60685 6.18745 1.90727 3.68664 9.09573 2.53453 -0.0 0.0 -0.0 8.20706 9.59759 15.583 -25.2481 -14.2376 66.7061 0.484325 -13.4916 0.0572881 65.923 -2.32866 -7.6263 1.86859 -27.1432 0.539102 -0.0 0.0 -0.0 8.07695 28.7957 -14.288 -5.3865 53.156 -54.2388 0.389481 10.9205 -0.0372303 -47.3425 3.76367 -4.53675 2.75984 28.4368 -5.58413 0.0 0.0 0.0 26.4377 1.14648 -3.53192 -21.4679 0.275307 3.26367 2.8174 25.8547 -0.429389 25.3709 -0.0 -0.0 -0.0 0.0 -0.0 1.56369 13.8099 1.80975 -39.693 0.447354 -5.95527 -24.8749 -27.3095 -3.94945 -5.52477 0.0 0.0 0.0 0.0 0.0 
2365.96 690.916 -884.086 175.319 -46.659 177.17 -1.82427 0.62207 0.817088 -1.82408 0.568818 0.855014 -1.81503 0.346017 0.966882 -1.816 0.49437 0.900109 2.65103 4.96875 1.81601 2.69736 7.14179 2.38518 -0.0 0.0 -0.0 8.41463 7.43373 16.1066 -22.9809 -12.5934 65.8874 0.522785 -14.5192 0.0665963 67.8561 -2.521 -7.78283 2.091 -28.7058 1.20538 -0.0 0.0 -0.0 6.86383 29.8772 -11.5042 -5.6382 52.1413 -57.5811 0.440578 12.3119 -0.0475197 -44.957 3.49309 -4.39351 2.79287 28.3877 -5.81958 0.0 0.0 0.0 25.0386 2.23912 -2.86823 -20.4846 0.289563 3.11347 6.0632 21.6264 -0.897684 24.4738 -0.0 -0.0 -0.0 0.0 -0.0 4.95687 19.8669 -0.523475 -46.6551 0.943492 -6.90355 -23.4394 -29.3191 -3.76826 -3.51381 0.0 0.0 0.0 0.0 0.0 
